<svg width="36" height="36" viewBox="0 0 36 36" fill="none" xmlns="http://www.w3.org/2000/svg">
<rect width="36" height="36" fill="#F12052"/>
<path fill-rule="evenodd" clip-rule="evenodd" d="M17.1667 11.3337C16.7065 11.3337 16.3334 11.7068 16.3334 12.167C16.3334 12.6272 16.7065 13.0003 17.1667 13.0003H18.8334C19.2936 13.0003 19.6667 12.6272 19.6667 12.167C19.6667 11.7068 19.2936 11.3337 18.8334 11.3337H17.1667ZM14.809 11.3337C15.1522 10.3627 16.0782 9.66699 17.1667 9.66699H18.8334C19.9219 9.66699 20.8479 10.3627 21.1911 11.3337H22.1667C22.8297 11.3337 23.4656 11.5971 23.9345 12.0659C24.4033 12.5347 24.6667 13.1706 24.6667 13.8337V23.8337C24.6667 24.4967 24.4033 25.1326 23.9345 25.6014C23.4656 26.0703 22.8297 26.3337 22.1667 26.3337H13.8334C13.1703 26.3337 12.5344 26.0703 12.0656 25.6014C11.5968 25.1326 11.3334 24.4967 11.3334 23.8337V13.8337C11.3334 13.1706 11.5968 12.5347 12.0656 12.0659C12.5344 11.5971 13.1703 11.3337 13.8334 11.3337H14.809ZM14.809 13.0003H13.8334C13.6124 13.0003 13.4004 13.0881 13.2441 13.2444C13.0878 13.4007 13 13.6126 13 13.8337V23.8337C13 24.0547 13.0878 24.2666 13.2441 24.4229C13.4004 24.5792 13.6124 24.667 13.8334 24.667H22.1667C22.3877 24.667 22.5997 24.5792 22.756 24.4229C22.9122 24.2666 23 24.0547 23 23.8337V13.8337C23 13.6126 22.9122 13.4007 22.756 13.2444C22.5997 13.0881 22.3877 13.0003 22.1667 13.0003H21.1911C20.8479 13.9713 19.9219 14.667 18.8334 14.667H17.1667C16.0782 14.667 15.1522 13.9713 14.809 13.0003ZM15.5 17.167C15.9603 17.167 16.3334 17.5401 16.3334 18.0003V22.167C16.3334 22.6272 15.9603 23.0003 15.5 23.0003C15.0398 23.0003 14.6667 22.6272 14.6667 22.167V18.0003C14.6667 17.5401 15.0398 17.167 15.5 17.167ZM20.5 18.8337C20.9603 18.8337 21.3334 19.2068 21.3334 19.667V22.167C21.3334 22.6272 20.9603 23.0003 20.5 23.0003C20.0398 23.0003 19.6667 22.6272 19.6667 22.167V19.667C19.6667 19.2068 20.0398 18.8337 20.5 18.8337ZM18 20.5003C18.4603 20.5003 18.8334 20.8734 18.8334 21.3337V22.167C18.8334 22.6272 18.4603 23.0003 18 23.0003C17.5398 23.0003 17.1667 22.6272 17.1667 22.167V21.3337C17.1667 20.8734 17.5398 20.5003 18 20.5003Z" fill="white"/>
</svg>
